<svg version="1.0" xmlns="http://www.w3.org/2000/svg" width="266.667" height="266.667" viewBox="0 0 200 200"><path d="M98 23.1c-8.4 1.4-19.3 9.7-23.2 17.7-1.8 3.7-2.2 6.4-2.2 12.7.1 11.5 2.7 16.6 14.3 27.9 8.7 8.6 10.8 12.2 5.3 9.2-1.5-.9-7.6-2.2-13.6-3-7.8-1.1-12.1-2.3-15.2-4.1-5.5-3.2-12-10.9-13.2-15.5-1.3-5.2-.6-16.3 1.3-20.4 3.5-7.3 16-16.5 22.6-16.6 1.4 0 3.4-.6 4.5-1.4 3.2-2.4-.6-3-7.3-1.1-17.9 5.2-27.3 17.1-26.1 33 .7 7.5 3.4 13.9 8.4 19.4 5.9 6.6 10.4 8.7 24.4 11 6.9 1.2 12.9 2.1 13.3 2.1 2.1 0-.6 1.8-3.5 2.4-1.8.3-5.8 2.1-9 4-3.1 1.9-8.3 4.4-11.7 5.6-5.3 2-6.7 2.1-12.2 1.1-9.4-1.6-17-6.8-22.2-15-1.8-3-2.2-5-2.2-12.6 0-10.1 1-12.7 7.7-20.8 2.2-2.7 3.8-5 3.6-5.3-1.8-1.7-8.8 5.8-13 13.7-3.5 6.7-3.3 18.4.5 26.1 3.4 6.9 9.2 12.9 15.5 15.9 3.7 1.8 6.4 2.2 12.7 2.2 7.8 0 8.5-.2 19.4-5.7 13.2-6.6 15.5-7 11.5-2.4-1.5 1.8-4.4 6.9-6.4 11.4-4.3 9.3-8.6 14.6-14.4 17.7-5.6 3-19.2 3.1-25 .3-10.1-5-15.7-15.1-16-28.9-.3-12.3-3.2-9.8-3.5 3.1-.1 7.1 1.7 12.4 6.7 19.7 4.2 6.2 9.1 9.8 15.7 11.7 12.9 3.7 26.3-1.2 35.6-12.8 1.6-2 2.9-4.1 2.9-4.5 0-1.1 4.9-11.7 6.8-14.6 1.7-2.7 3.4-2.1 2.3.9-.4 1.2 0 5.9 1.1 11.2 2.6 13.6 2.4 18.3-1.3 25.2-3.9 7.6-6.1 9.9-12.6 13-4.6 2.3-6.2 2.6-12.7 2.2-12.5-.8-21.2-6.5-27.2-17.8-1.7-3.2-1.9-3.3-2.2-1.2-.8 5.1 9 16.7 17.9 21.2 5.5 2.9 15.3 3.1 22.8.6 6.6-2.3 16.2-11.3 19.2-18.2 3-6.6 2.9-11.5-.1-27.6-1.3-6.5-1.3-8.8 0-8.8.6 0 1 .6 1 1.4 0 1.5 2.5 4.2 12.4 13.5 7.8 7.4 9.6 11.2 9.6 20.7 0 6.6-.4 8.4-3.2 13.6-5.8 10.8-14.3 15.4-27.2 14.6-4.6-.3-8.6-1.3-11.5-2.7-6.4-3.3-7.7-1.1-1.5 2.5 4.2 2.5 6.1 2.9 14.4 3.2 8.9.4 10.1.2 15.5-2.3 12.1-5.7 17.7-14.6 17.8-28 .1-9.8-2.8-16.9-9.3-23-7.9-7.3-14-13.7-14-14.6 0-.5 1.8 0 3.9 1.1 2.5 1.2 7.4 2.3 13.4 2.8 7.7.7 10.5 1.5 14.4 3.7 15.6 9.2 19.6 25.1 10 40.2-3.7 5.8-8.5 9.2-17.7 12.3-8.3 2.7-9.3 4-3.1 4 4.5 0 14.3-4.7 19.8-9.4 12.7-11.1 13.3-32.2 1.2-44.5-6.3-6.3-10.9-8.8-17.8-9.5-7-.7-18.9-3.1-19.7-3.9-.3-.2.8-.8 2.3-1.2 1.5-.3 7.7-3.1 13.6-6.1 9.8-4.9 11.5-5.4 17.4-5.4 11.1 0 21.9 7.1 26.2 17.1 4.4 10.1.7 25.9-7.6 32.8-2.3 1.9-3.1 3.1-2.3 3.6 2 1.2 9.6-6.5 13.1-13.5 1.9-3.6 2.3-6.1 2.3-12.5-.1-9.9-2.2-15.1-9-21.8-7.5-7.5-12.7-9.7-22.4-9.7-7.8 0-8.5.2-20.7 6-6.9 3.3-12.7 6-13 6-.2 0 1.2-2.1 3.1-4.6 1.9-2.5 4-6.2 4.7-8.2 2.4-7.4 9.2-16.1 15.4-19.8 13.1-7.6 32.7-.9 39.3 13.5 2.2 4.7 2.6 7 2.5 14.3 0 4.9.3 8.8.8 8.8 1.5 0 2.8-6.7 2.5-13.5-.3-8.4-3.6-15.7-10-21.9-6.4-6.4-10.6-8-20.6-8.1-7.3 0-9.3.4-14 2.8-9.3 4.6-13.8 9.7-18.5 21-1.5 3.8-3.6 7.8-4.6 9-1.8 2.2-1.8 2.2-1.9-2.8-.1-2.8-.3-5.7-.5-6.5-3.3-16.1-3.3-20.9.3-27.7 3.4-6.5 7.9-11.4 12.9-13.9 5.7-2.8 18.3-2.6 24.4.4 5.1 2.5 13.9 10.4 13.9 12.6 0 1.8 3.6 6.3 4.5 5.4 1.2-1.1-4.3-11.2-8.4-15.4-6.1-6.4-12-8.8-21.6-8.9-6.6 0-9 .5-13.7 2.7-8.1 3.8-14.3 9.8-16.8 16.4-2.4 6.5-2.5 11.6-.5 24.4.8 5.2 1.5 10.1 1.5 10.7 0 2.4-2.1 1.3-3.1-1.6-.6-1.7-2.7-4.2-4.7-5.7-5.9-4.4-12-11.3-14.2-16-4.7-9.6-1.9-23.3 6.3-31.5 5.2-5.2 10.1-7.3 18.3-7.7 5.9-.3 8.1 0 13.8 2.3 3.7 1.5 7 2.5 7.2 2.2.8-.8-7.9-6.5-10.9-7.2-3.6-1-11.5-1.1-15.7-.4z"/></svg>